<svg width="17" height="16" viewBox="0 0 17 16" fill="none" xmlns="http://www.w3.org/2000/svg">
<path d="M15.5849 4.22308C15.3615 3.70977 15.0393 3.24461 14.6365 2.85365C14.2333 2.46152 13.758 2.1499 13.2363 1.93573C12.6954 1.71277 12.1152 1.59865 11.5295 1.59999C10.7077 1.59999 9.90595 1.82326 9.2092 2.24501C9.04252 2.3459 8.88417 2.45671 8.73415 2.57745C8.58413 2.45671 8.42578 2.3459 8.2591 2.24501C7.56235 1.82326 6.76059 1.59999 5.93883 1.59999C5.34709 1.59999 4.7737 1.71245 4.23197 1.93573C3.70857 2.15074 3.23685 2.46002 2.83181 2.85365C2.42842 3.24417 2.10619 3.70944 1.88337 4.22308C1.65167 4.75729 1.53333 5.32458 1.53333 5.90841C1.53333 6.45916 1.64667 7.03307 1.8717 7.61689C2.06005 8.1048 2.33008 8.61089 2.67512 9.12195C3.22185 9.93071 3.9736 10.7742 4.90704 11.6293C6.45389 13.0467 7.98573 14.0258 8.05074 14.0655L8.44578 14.3169C8.6208 14.4277 8.84583 14.4277 9.02085 14.3169L9.41589 14.0655C9.4809 14.0241 11.0111 13.0467 12.5596 11.6293C13.493 10.7742 14.2448 9.93071 14.7915 9.12195C15.1365 8.61089 15.4082 8.1048 15.5949 7.61689C15.82 7.03307 15.9333 6.45916 15.9333 5.90841C15.935 5.32458 15.8166 4.75729 15.5849 4.22308V4.22308Z" fill="#D9D9D9" stroke="#ECECEC" stroke-width="1.4"/>
</svg>
